<svg width="471" height="471" viewBox="0 0 471 471" fill="none" xmlns="http://www.w3.org/2000/svg">
<circle cx="235.5" cy="235.5" r="235.5" fill="black"/>
<path d="M111.293 292.253C111.293 293.724 110.099 294.92 108.626 294.92C107.154 294.92 105.959 293.724 105.959 292.253V185.558C105.959 152.128 119.634 121.737 141.664 99.7063C163.695 77.6757 194.086 64 227.516 64C260.947 64 291.338 77.6757 313.368 99.7063C335.399 121.737 349.073 152.128 349.073 185.558V208.173C349.073 209.646 347.879 210.841 346.406 210.841C344.932 210.841 343.739 209.646 343.739 208.173V185.558C343.739 153.599 330.662 124.543 309.597 103.476C288.53 82.411 259.475 69.3339 227.514 69.3339C195.555 69.3339 166.501 82.411 145.434 103.476C124.369 124.543 111.292 153.599 111.292 185.558V292.253H111.293Z" fill="#A1711B"/>
<path d="M68.6671 294.92C67.1945 294.92 66 293.724 66 292.253C66 290.779 67.1941 289.586 68.6671 289.586H400.477C401.95 289.586 403.144 290.779 403.144 292.253C403.144 293.724 401.95 294.92 400.477 294.92H68.6669H68.6671Z" fill="#A1711B"/>
<path d="M167.735 244.63C165.626 235.372 161.272 227.002 153.702 221.131C150.807 218.885 146.998 217.821 143.13 217.821C140.321 217.821 137.506 218.384 135 219.459C132.55 220.512 130.41 222.045 128.888 224.007C127.353 225.989 126.423 228.452 126.423 231.356C126.423 234.744 127.796 237.809 130.015 240.028C132.233 242.246 135.3 243.619 138.687 243.619C139.733 243.619 140.734 243.495 141.673 243.26C142.658 243.015 143.59 242.654 144.453 242.194L146.735 240.975L148.016 243.227C150.666 247.88 152.111 253.331 152.654 258.909C153.268 265.2 152.729 271.681 151.481 277.346L151.45 277.485C150.977 279.628 151.418 281.759 152.512 283.474C153.579 285.151 155.279 286.428 157.358 286.924L157.527 286.952L157.612 286.982C159.716 287.414 161.803 286.969 163.487 285.896C165.2 284.802 166.497 283.055 166.97 280.912L166.997 280.79C169.518 269.401 170.4 256.319 167.735 244.63ZM198.836 243.927C204.22 243.377 209.685 243.076 215.158 243.03C220.809 242.982 226.469 243.201 232.055 243.69L234.694 199.864C235.12 193.891 231.012 189.849 225.398 187.786C222.373 186.674 218.917 186.118 215.44 186.118C211.963 186.118 208.505 186.674 205.48 187.784C199.866 189.849 195.756 193.891 196.182 199.864L198.836 243.927ZM173.866 248.518C180.147 246.787 186.758 245.465 193.541 244.552L191.278 206.996L191.195 207.048C188.752 203.078 183.485 201.512 177.945 201.849C175.032 202.027 172.064 202.735 169.379 203.901C166.744 205.048 164.403 206.623 162.687 208.556C160.072 211.503 158.908 215.395 160.481 219.969L160.455 219.978C166.975 226.369 170.897 234.568 172.924 243.464C173.302 245.126 173.616 246.813 173.866 248.518ZM264.531 290.374C261.81 288.639 259.718 285.914 258.841 282.58H172.033C171.154 285.914 169.062 288.639 166.343 290.374C163.519 292.177 160.016 292.914 156.487 292.173C156.413 292.158 156.289 292.138 156.222 292.116C152.706 291.304 149.836 289.156 148.032 286.328C146.231 283.505 145.493 280.002 146.233 276.475L146.262 276.336C147.421 271.138 147.925 265.181 147.363 259.41C146.97 255.379 146.055 251.454 144.472 247.971C143.972 248.145 143.462 248.299 142.945 248.427C141.566 248.772 140.139 248.953 138.688 248.953C133.829 248.953 129.429 246.983 126.244 243.799C123.059 240.615 121.089 236.215 121.089 231.356C121.089 227.199 122.443 223.642 124.681 220.759C126.789 218.038 129.661 215.955 132.895 214.565C136.072 213.201 139.616 212.487 143.13 212.487C147.078 212.487 151.022 213.386 154.421 215.262C154.565 211.336 156.174 207.889 158.707 205.035C160.963 202.494 163.949 200.465 167.255 199.026C170.513 197.61 174.107 196.752 177.634 196.537C182.428 196.245 187.136 197.134 190.828 199.403C190.607 191.07 196.147 185.542 203.647 182.786C207.278 181.451 211.368 180.784 215.44 180.784C219.51 180.784 223.602 181.451 227.231 182.786C234.731 185.542 240.271 191.07 240.048 199.401C243.74 197.134 248.446 196.245 253.24 196.537C256.765 196.752 260.361 197.609 263.619 199.026C266.925 200.463 269.911 202.494 272.167 205.035C274.7 207.889 276.309 211.336 276.453 215.262C279.852 213.386 283.796 212.487 287.744 212.487C291.258 212.487 294.8 213.201 297.978 214.565C301.212 215.955 304.083 218.038 306.192 220.759C308.429 223.642 309.784 227.201 309.784 231.356C309.784 236.215 307.814 240.615 304.63 243.799C301.444 246.983 297.044 248.953 292.186 248.953C290.735 248.953 289.308 248.772 287.929 248.427C287.412 248.299 286.903 248.145 286.402 247.971C284.819 251.454 283.902 255.381 283.511 259.412C282.951 265.155 283.45 271.084 284.595 276.264H284.601L284.612 276.338C285.399 279.913 284.666 283.468 282.84 286.328C281.027 289.171 278.136 291.324 274.596 292.127L274.598 292.132L274.387 292.175C270.856 292.914 267.354 292.177 264.531 290.375V290.374ZM257.757 277.244C256.4 269.527 255.813 261.258 256.475 253.205C243.598 249.841 229.375 248.221 215.199 248.344C201.119 248.466 187.082 250.312 174.452 253.883C175.028 261.721 174.435 269.744 173.117 277.246H257.757V277.244ZM257.95 243.464C259.975 234.568 263.897 226.367 270.419 219.978L270.391 219.969C271.965 215.393 270.803 211.501 268.186 208.554C266.471 206.621 264.129 205.046 261.493 203.901C258.81 202.733 255.843 202.027 252.927 201.849C247.389 201.512 242.12 203.078 239.68 207.048L239.598 206.998L237.354 244.237C244.139 245.045 250.774 246.259 257.105 247.875C257.338 246.39 257.618 244.917 257.95 243.464ZM277.171 221.131C269.602 227.002 265.246 235.374 263.137 244.631C260.463 256.361 261.36 269.498 263.903 280.91L263.934 281.046C264.431 283.129 265.71 284.826 267.385 285.896C269.081 286.978 271.184 287.419 273.303 286.971L273.509 286.926C275.592 286.428 277.291 285.151 278.361 283.474C279.443 281.778 279.884 279.674 279.439 277.556L279.434 277.558L279.422 277.484C278.153 271.786 277.601 265.25 278.218 258.911C278.761 253.333 280.206 247.88 282.857 243.227L284.137 240.977L286.419 242.194C287.281 242.654 288.213 243.015 289.199 243.26C290.138 243.495 291.139 243.619 292.185 243.619C295.572 243.619 298.64 242.246 300.858 240.028C303.077 237.809 304.45 234.744 304.45 231.356C304.45 228.452 303.52 225.989 301.983 224.007C300.462 222.045 298.321 220.514 295.873 219.459C293.365 218.383 290.552 217.821 287.742 217.821C283.874 217.821 280.066 218.885 277.171 221.131Z" fill="#A1711B"/>
<path d="M244.044 142.274L231.755 123.894C231.364 123.31 230.884 122.84 230.352 122.484C229.514 121.924 228.521 121.642 227.516 121.642C226.512 121.642 225.516 121.924 224.679 122.484C224.149 122.84 223.669 123.31 223.278 123.894L210.988 142.274C210.957 142.32 210.942 142.359 210.94 142.389C210.938 142.427 210.951 142.474 210.977 142.524C211.003 142.572 211.031 142.605 211.06 142.622C211.079 142.633 211.123 142.641 211.192 142.641H243.84C243.907 142.641 243.953 142.633 243.972 142.622C244 142.605 244.029 142.572 244.053 142.524C244.081 142.474 244.092 142.427 244.092 142.389C244.091 142.359 244.074 142.32 244.042 142.274H244.044ZM233.141 150.215L233.137 150.21C233.782 149.565 234.316 148.809 234.709 147.975H220.32C220.713 148.812 221.246 149.568 221.891 150.215C223.328 151.648 225.316 152.537 227.516 152.537C229.714 152.537 231.705 151.648 233.141 150.215ZM240.362 147.975C239.756 150.282 238.544 152.343 236.907 153.979H236.898C234.494 156.383 231.177 157.871 227.516 157.871C223.856 157.871 220.538 156.383 218.135 153.979L218.125 153.97C216.491 152.334 215.279 150.276 214.673 147.975H211.192C210.163 147.975 209.187 147.698 208.33 147.185C207.485 146.677 206.781 145.943 206.29 145.024C205.799 144.105 205.58 143.115 205.628 142.138C205.677 141.149 205.993 140.181 206.572 139.316L218.863 120.936C219.653 119.754 220.631 118.797 221.721 118.067C223.474 116.896 225.502 116.308 227.516 116.308C229.531 116.308 231.558 116.894 233.312 118.067C234.403 118.797 235.382 119.754 236.171 120.936L248.461 139.316C249.041 140.181 249.356 141.147 249.406 142.138C249.454 143.115 249.235 144.105 248.742 145.024C248.251 145.943 247.549 146.677 246.702 147.185C245.848 147.698 244.871 147.975 243.84 147.975H240.363H240.362Z" fill="#A1711B"/>
<path d="M230.183 66.7207V118.975H224.849V66.7207H230.183Z" fill="#A1711B"/>
<path d="M294.168 120.291V142.396L302.947 151.175C303.988 152.217 303.988 153.905 302.947 154.947C301.905 155.988 300.217 155.988 299.175 154.947L288.834 144.603V120.325C283.511 120.964 278.739 123.392 275.139 126.991C270.916 131.217 268.303 137.053 268.303 143.499C268.303 149.946 270.916 155.783 275.139 160.006C279.363 164.232 285.201 166.843 291.647 166.843C298.095 166.843 303.931 164.23 308.155 160.006C312.378 155.783 314.992 149.946 314.992 143.499C314.992 137.053 312.378 131.215 308.155 126.991C304.489 123.325 299.607 120.873 294.166 120.291H294.168ZM291.415 114.824L291.647 114.822C299.566 114.822 306.737 118.032 311.926 123.221C317.116 128.411 320.326 135.583 320.326 143.501C320.326 151.418 317.116 158.589 311.926 163.778C306.737 168.969 299.566 172.179 291.647 172.179C283.73 172.179 276.559 168.969 271.37 163.778C266.18 158.589 262.969 151.418 262.969 143.501C262.969 135.583 266.179 128.411 271.37 123.221C276.507 118.084 283.591 114.885 291.415 114.824Z" fill="#A1711B"/>
<path d="M368.318 226.521H324.496V289.219H368.318V226.521ZM321.829 221.187H370.985C372.458 221.187 373.652 222.38 373.652 223.854V291.886C373.652 293.357 372.458 294.553 370.985 294.553H321.829C320.355 294.553 319.162 293.357 319.162 291.886V223.854C319.162 222.38 320.355 221.187 321.829 221.187Z" fill="#A1711B"/>
<path d="M370.985 275.677C372.458 275.677 373.652 276.872 373.652 278.344C373.652 279.817 372.458 281.01 370.985 281.01H321.829C320.355 281.01 319.162 279.817 319.162 278.344C319.162 276.872 320.355 275.677 321.829 275.677H370.985ZM370.985 248.433C372.458 248.433 373.652 249.626 373.652 251.1C373.652 252.571 372.458 253.766 370.985 253.766H321.829C320.355 253.766 319.162 252.573 319.162 251.1C319.162 249.626 320.355 248.433 321.829 248.433H370.985Z" fill="#A1711B"/>
<path fill-rule="evenodd" clip-rule="evenodd" d="M346.406 233.304C348.594 233.304 350.366 235.077 350.366 237.264C350.366 239.451 348.594 241.225 346.406 241.225C344.219 241.225 342.445 239.451 342.445 237.264C342.445 235.077 344.219 233.304 346.406 233.304ZM346.406 260.761C348.594 260.761 350.366 262.533 350.366 264.722C350.366 266.908 348.594 268.682 346.406 268.682C344.219 268.682 342.445 266.908 342.445 264.722C342.445 262.533 344.219 260.761 346.406 260.761Z" fill="#A1711B"/>
<path d="M100.238 326.304V360H92.0296V339.792L84.4936 360H77.8696L70.2856 339.744V360H62.0776V326.304H71.7736L81.2296 349.632L90.5896 326.304H100.238ZM118.332 360.384C115.708 360.384 113.34 359.824 111.228 358.704C109.148 357.584 107.5 355.984 106.284 353.904C105.1 351.824 104.508 349.392 104.508 346.608C104.508 343.856 105.116 341.44 106.332 339.36C107.548 337.248 109.212 335.632 111.324 334.512C113.436 333.392 115.804 332.832 118.428 332.832C121.052 332.832 123.42 333.392 125.532 334.512C127.644 335.632 129.308 337.248 130.524 339.36C131.74 341.44 132.348 343.856 132.348 346.608C132.348 349.36 131.724 351.792 130.476 353.904C129.26 355.984 127.58 357.584 125.436 358.704C123.324 359.824 120.956 360.384 118.332 360.384ZM118.332 353.28C119.9 353.28 121.228 352.704 122.316 351.552C123.436 350.4 123.996 348.752 123.996 346.608C123.996 344.464 123.452 342.816 122.364 341.664C121.308 340.512 119.996 339.936 118.428 339.936C116.828 339.936 115.5 340.512 114.444 341.664C113.388 342.784 112.86 344.432 112.86 346.608C112.86 348.752 113.372 350.4 114.396 351.552C115.452 352.704 116.764 353.28 118.332 353.28ZM135.071 346.56C135.071 343.808 135.583 341.392 136.607 339.312C137.663 337.232 139.087 335.632 140.879 334.512C142.671 333.392 144.671 332.832 146.879 332.832C148.639 332.832 150.239 333.2 151.679 333.936C153.151 334.672 154.303 335.664 155.135 336.912V324.48H163.343V360H155.135V356.16C154.367 357.44 153.263 358.464 151.823 359.232C150.415 360 148.767 360.384 146.879 360.384C144.671 360.384 142.671 359.824 140.879 358.704C139.087 357.552 137.663 355.936 136.607 353.856C135.583 351.744 135.071 349.312 135.071 346.56ZM155.135 346.608C155.135 344.56 154.559 342.944 153.407 341.76C152.287 340.576 150.911 339.984 149.279 339.984C147.647 339.984 146.255 340.576 145.103 341.76C143.983 342.912 143.423 344.512 143.423 346.56C143.423 348.608 143.983 350.24 145.103 351.456C146.255 352.64 147.647 353.232 149.279 353.232C150.911 353.232 152.287 352.64 153.407 351.456C154.559 350.272 155.135 348.656 155.135 346.608ZM194.529 346.176C194.529 346.944 194.481 347.744 194.385 348.576H175.809C175.937 350.24 176.465 351.52 177.393 352.416C178.353 353.28 179.521 353.712 180.897 353.712C182.945 353.712 184.369 352.848 185.169 351.12H193.905C193.457 352.88 192.641 354.464 191.457 355.872C190.305 357.28 188.849 358.384 187.089 359.184C185.329 359.984 183.361 360.384 181.185 360.384C178.561 360.384 176.225 359.824 174.177 358.704C172.129 357.584 170.529 355.984 169.377 353.904C168.225 351.824 167.649 349.392 167.649 346.608C167.649 343.824 168.209 341.392 169.329 339.312C170.481 337.232 172.081 335.632 174.129 334.512C176.177 333.392 178.529 332.832 181.185 332.832C183.777 332.832 186.081 333.376 188.097 334.464C190.113 335.552 191.681 337.104 192.801 339.12C193.953 341.136 194.529 343.488 194.529 346.176ZM186.129 344.016C186.129 342.608 185.649 341.488 184.689 340.656C183.729 339.824 182.529 339.408 181.089 339.408C179.713 339.408 178.545 339.808 177.585 340.608C176.657 341.408 176.081 342.544 175.857 344.016H186.129ZM207.067 337.68C208.027 336.208 209.227 335.056 210.667 334.224C212.107 333.36 213.707 332.928 215.467 332.928V341.616H213.211C211.163 341.616 209.627 342.064 208.603 342.96C207.579 343.824 207.067 345.36 207.067 347.568V360H198.859V333.216H207.067V337.68ZM235.71 332.928C238.846 332.928 241.342 333.952 243.198 336C245.086 338.016 246.03 340.8 246.03 344.352V360H237.87V345.456C237.87 343.664 237.406 342.272 236.478 341.28C235.55 340.288 234.302 339.792 232.734 339.792C231.166 339.792 229.918 340.288 228.99 341.28C228.062 342.272 227.598 343.664 227.598 345.456V360H219.39V333.216H227.598V336.768C228.43 335.584 229.55 334.656 230.958 333.984C232.366 333.28 233.95 332.928 235.71 332.928Z" fill="white"/>
<path d="M273.234 360.336C271.026 360.336 269.042 359.952 267.282 359.184C265.554 358.384 264.194 357.296 263.202 355.92C262.21 354.512 261.698 352.896 261.666 351.072H266.322C266.482 352.64 267.122 353.968 268.242 355.056C269.394 356.112 271.058 356.64 273.234 356.64C275.314 356.64 276.946 356.128 278.13 355.104C279.346 354.048 279.954 352.704 279.954 351.072C279.954 349.792 279.602 348.752 278.898 347.952C278.194 347.152 277.314 346.544 276.258 346.128C275.202 345.712 273.778 345.264 271.986 344.784C269.778 344.208 268.002 343.632 266.658 343.056C265.346 342.48 264.21 341.584 263.25 340.368C262.322 339.12 261.858 337.456 261.858 335.376C261.858 333.552 262.322 331.936 263.25 330.528C264.178 329.12 265.474 328.032 267.138 327.264C268.834 326.496 270.77 326.112 272.946 326.112C276.082 326.112 278.642 326.896 280.626 328.464C282.642 330.032 283.778 332.112 284.034 334.704H279.234C279.074 333.424 278.402 332.304 277.218 331.344C276.034 330.352 274.466 329.856 272.514 329.856C270.69 329.856 269.202 330.336 268.05 331.296C266.898 332.224 266.322 333.536 266.322 335.232C266.322 336.448 266.658 337.44 267.33 338.208C268.034 338.976 268.882 339.568 269.874 339.984C270.898 340.368 272.322 340.816 274.146 341.328C276.354 341.936 278.13 342.544 279.474 343.152C280.818 343.728 281.97 344.64 282.93 345.888C283.89 347.104 284.37 348.768 284.37 350.88C284.37 352.512 283.938 354.048 283.074 355.488C282.21 356.928 280.93 358.096 279.234 358.992C277.538 359.888 275.538 360.336 273.234 360.336ZM295.166 338.544C296.03 337.04 297.31 335.792 299.006 334.8C300.734 333.776 302.734 333.264 305.006 333.264C307.342 333.264 309.454 333.824 311.342 334.944C313.262 336.064 314.766 337.648 315.854 339.696C316.942 341.712 317.486 344.064 317.486 346.752C317.486 349.408 316.942 351.776 315.854 353.856C314.766 355.936 313.262 357.552 311.342 358.704C309.454 359.856 307.342 360.432 305.006 360.432C302.766 360.432 300.782 359.936 299.054 358.944C297.358 357.92 296.062 356.656 295.166 355.152V372.48H290.798V333.696H295.166V338.544ZM313.022 346.752C313.022 344.768 312.622 343.04 311.822 341.568C311.022 340.096 309.934 338.976 308.558 338.208C307.214 337.44 305.726 337.056 304.094 337.056C302.494 337.056 301.006 337.456 299.63 338.256C298.286 339.024 297.198 340.16 296.366 341.664C295.566 343.136 295.166 344.848 295.166 346.8C295.166 348.784 295.566 350.528 296.366 352.032C297.198 353.504 298.286 354.64 299.63 355.44C301.006 356.208 302.494 356.592 304.094 356.592C305.726 356.592 307.214 356.208 308.558 355.44C309.934 354.64 311.022 353.504 311.822 352.032C312.622 350.528 313.022 348.768 313.022 346.752ZM321.603 346.752C321.603 344.064 322.147 341.712 323.235 339.696C324.323 337.648 325.811 336.064 327.699 334.944C329.619 333.824 331.747 333.264 334.083 333.264C336.387 333.264 338.387 333.76 340.083 334.752C341.779 335.744 343.043 336.992 343.875 338.496V333.696H348.291V360H343.875V355.104C343.011 356.64 341.715 357.92 339.987 358.944C338.291 359.936 336.307 360.432 334.035 360.432C331.699 360.432 329.587 359.856 327.699 358.704C325.811 357.552 324.323 355.936 323.235 353.856C322.147 351.776 321.603 349.408 321.603 346.752ZM343.875 346.8C343.875 344.816 343.475 343.088 342.675 341.616C341.875 340.144 340.787 339.024 339.411 338.256C338.067 337.456 336.579 337.056 334.947 337.056C333.315 337.056 331.827 337.44 330.483 338.208C329.139 338.976 328.067 340.096 327.267 341.568C326.467 343.04 326.067 344.768 326.067 346.752C326.067 348.768 326.467 350.528 327.267 352.032C328.067 353.504 329.139 354.64 330.483 355.44C331.827 356.208 333.315 356.592 334.947 356.592C336.579 356.592 338.067 356.208 339.411 355.44C340.787 354.64 341.875 353.504 342.675 352.032C343.475 350.528 343.875 348.784 343.875 346.8ZM354.041 346.8C354.041 344.08 354.585 341.712 355.673 339.696C356.761 337.648 358.265 336.064 360.185 334.944C362.137 333.824 364.361 333.264 366.857 333.264C370.089 333.264 372.745 334.048 374.825 335.616C376.937 337.184 378.329 339.36 379.001 342.144H374.297C373.849 340.544 372.969 339.28 371.657 338.352C370.377 337.424 368.777 336.96 366.857 336.96C364.361 336.96 362.345 337.824 360.809 339.552C359.273 341.248 358.505 343.664 358.505 346.8C358.505 349.968 359.273 352.416 360.809 354.144C362.345 355.872 364.361 356.736 366.857 356.736C368.777 356.736 370.377 356.288 371.657 355.392C372.937 354.496 373.817 353.216 374.297 351.552H379.001C378.297 354.24 376.889 356.4 374.777 358.032C372.665 359.632 370.025 360.432 366.857 360.432C364.361 360.432 362.137 359.872 360.185 358.752C358.265 357.632 356.761 356.048 355.673 354C354.585 351.952 354.041 349.552 354.041 346.8ZM408.829 345.84C408.829 346.672 408.781 347.552 408.685 348.48H387.661C387.821 351.072 388.701 353.104 390.301 354.576C391.933 356.016 393.901 356.736 396.205 356.736C398.093 356.736 399.661 356.304 400.909 355.44C402.189 354.544 403.085 353.36 403.597 351.888H408.301C407.597 354.416 406.189 356.48 404.077 358.08C401.965 359.648 399.341 360.432 396.205 360.432C393.709 360.432 391.469 359.872 389.485 358.752C387.533 357.632 385.997 356.048 384.877 354C383.757 351.92 383.197 349.52 383.197 346.8C383.197 344.08 383.741 341.696 384.829 339.648C385.917 337.6 387.437 336.032 389.389 334.944C391.373 333.824 393.645 333.264 396.205 333.264C398.701 333.264 400.909 333.808 402.829 334.896C404.749 335.984 406.221 337.488 407.245 339.408C408.301 341.296 408.829 343.44 408.829 345.84ZM404.317 344.928C404.317 343.264 403.949 341.84 403.213 340.656C402.477 339.44 401.469 338.528 400.189 337.92C398.941 337.28 397.549 336.96 396.013 336.96C393.805 336.96 391.917 337.664 390.349 339.072C388.813 340.48 387.933 342.432 387.709 344.928H404.317Z" fill="#A1711B"/>
</svg>
