<svg width="352" height="315" viewBox="0 0 352 315" fill="none" xmlns="http://www.w3.org/2000/svg">
<path d="M52.2933 228.253C52.2933 229.724 51.0992 230.92 49.6262 230.92C48.1535 230.92 46.959 229.724 46.959 228.253V121.558C46.959 88.1278 60.6337 57.7369 82.6643 35.7063C104.695 13.6757 135.086 8.38105e-06 168.516 8.38105e-06C201.947 8.38105e-06 232.338 13.6757 254.368 35.7063C276.399 57.7369 290.073 88.1278 290.073 121.558V144.173C290.073 145.646 288.879 146.841 287.406 146.841C285.932 146.841 284.739 145.646 284.739 144.173V121.558C284.739 89.5994 271.662 60.5428 250.597 39.476C229.53 18.411 200.475 5.33388 168.514 5.33388C136.555 5.33388 107.501 18.411 86.4339 39.476C65.3686 60.5428 52.2924 89.5994 52.2924 121.558V228.253H52.2933Z" fill="#A1711B"/>
<path d="M9.66713 230.92C8.19448 230.92 7 229.724 7 228.253C7 226.779 8.19411 225.586 9.66713 225.586H341.477C342.95 225.586 344.144 226.779 344.144 228.253C344.144 229.724 342.95 230.92 341.477 230.92H9.66694H9.66713Z" fill="#A1711B"/>
<path d="M108.735 180.63C106.626 171.372 102.272 163.002 94.7016 157.131C91.8067 154.885 87.9981 153.821 84.1302 153.821C81.3209 153.821 78.5063 154.384 75.9998 155.459C73.5503 156.512 71.41 158.045 69.8885 160.007C68.353 161.989 67.4228 164.452 67.4228 167.356C67.4228 170.744 68.7959 173.809 71.0145 176.028C73.2334 178.246 76.2997 179.619 79.6872 179.619C80.7327 179.619 81.7337 179.495 82.6735 179.26C83.6576 179.015 84.5898 178.654 85.4535 178.194L87.7349 176.975L89.0156 179.227C91.6659 183.88 93.1115 189.331 93.6545 194.909C94.2679 201.2 93.7286 207.681 92.4813 213.346L92.4498 213.485C91.9772 215.628 92.4183 217.759 93.5118 219.474C94.5793 221.151 96.2788 222.428 98.3582 222.924L98.5269 222.952L98.6122 222.982C100.716 223.414 102.803 222.969 104.487 221.896C106.2 220.802 107.497 219.055 107.97 216.912L107.997 216.79C110.518 205.401 111.4 192.319 108.735 180.63ZM139.836 179.927C145.22 179.377 150.685 179.076 156.158 179.03C161.809 178.982 167.469 179.201 173.055 179.69L175.694 135.864C176.12 129.891 172.012 125.849 166.398 123.786C163.373 122.674 159.917 122.118 156.44 122.118C152.963 122.118 149.505 122.674 146.48 123.784C140.866 125.849 136.756 129.891 137.182 135.864L139.836 179.927ZM114.866 184.518C121.147 182.787 127.758 181.465 134.541 180.552L132.278 142.996L132.195 143.048C129.752 139.078 124.485 137.512 118.945 137.849C116.032 138.027 113.064 138.735 110.379 139.901C107.744 141.048 105.403 142.623 103.687 144.556C101.072 147.503 99.9076 151.395 101.481 155.969L101.455 155.978C107.975 162.369 111.897 170.568 113.924 179.464C114.302 181.126 114.616 182.813 114.866 184.518ZM205.531 226.374C202.81 224.639 200.718 221.914 199.841 218.58H113.033C112.154 221.914 110.062 224.639 107.343 226.374C104.519 228.177 101.016 228.914 97.4872 228.173C97.413 228.158 97.2889 228.138 97.2222 228.116C93.7064 227.304 90.8356 225.156 89.0323 222.328C87.2308 219.505 86.4932 216.002 87.2327 212.475L87.2623 212.336C88.4207 207.138 88.9248 201.181 88.3632 195.41C87.9703 191.379 87.0548 187.454 85.472 183.971C84.9716 184.145 84.462 184.299 83.9449 184.427C82.5664 184.772 81.1386 184.953 79.6876 184.953C74.8294 184.953 70.4291 182.983 67.2439 179.799C64.059 176.615 62.0889 172.215 62.0889 167.356C62.0889 163.199 63.4435 159.642 65.6807 156.759C67.7894 154.038 70.6615 151.955 73.8954 150.565C77.0724 149.201 80.6155 148.487 84.1302 148.487C88.0778 148.487 92.0217 149.386 95.4207 151.262C95.5653 147.336 97.174 143.889 99.7075 141.035C101.963 138.494 104.949 136.465 108.255 135.026C111.513 133.61 115.107 132.752 118.634 132.537C123.428 132.245 128.136 133.134 131.828 135.403C131.607 127.07 137.147 121.542 144.647 118.786C148.278 117.451 152.368 116.784 156.44 116.784C160.51 116.784 164.602 117.451 168.231 118.786C175.731 121.542 181.271 127.07 181.048 135.401C184.74 133.134 189.446 132.245 194.24 132.537C197.765 132.752 201.361 133.609 204.619 135.026C207.925 136.463 210.911 138.494 213.167 141.035C215.7 143.889 217.309 147.336 217.453 151.262C220.852 149.386 224.796 148.487 228.744 148.487C232.258 148.487 235.8 149.201 238.978 150.565C242.212 151.955 245.083 154.038 247.192 156.759C249.429 159.642 250.784 163.201 250.784 167.356C250.784 172.215 248.814 176.615 245.63 179.799C242.444 182.983 238.044 184.953 233.186 184.953C231.735 184.953 230.308 184.772 228.929 184.427C228.412 184.299 227.903 184.145 227.402 183.971C225.819 187.454 224.902 191.381 224.511 195.412C223.951 201.155 224.45 207.084 225.595 212.264H225.601L225.612 212.338C226.399 215.913 225.666 219.468 223.84 222.328C222.027 225.171 219.136 227.324 215.596 228.127L215.598 228.132L215.387 228.175C211.856 228.914 208.354 228.177 205.531 226.375V226.374ZM198.757 213.244C197.4 205.527 196.813 197.258 197.475 189.205C184.598 185.841 170.375 184.221 156.199 184.344C142.119 184.466 128.082 186.312 115.452 189.883C116.028 197.721 115.435 205.744 114.117 213.246H198.757V213.244ZM198.95 179.464C200.975 170.568 204.897 162.367 211.419 155.978L211.391 155.969C212.965 151.393 211.803 147.501 209.186 144.554C207.471 142.621 205.129 141.046 202.493 139.901C199.81 138.733 196.843 138.027 193.927 137.849C188.389 137.512 183.12 139.078 180.68 143.048L180.598 142.998L178.354 180.237C185.139 181.045 191.774 182.259 198.105 183.875C198.338 182.39 198.618 180.917 198.95 179.464ZM218.171 157.131C210.602 163.002 206.246 171.374 204.137 180.631C201.463 192.361 202.36 205.498 204.903 216.91L204.934 217.046C205.431 219.129 206.71 220.826 208.385 221.896C210.081 222.978 212.184 223.419 214.303 222.971L214.509 222.926C216.592 222.428 218.291 221.151 219.361 219.474C220.443 217.778 220.884 215.674 220.439 213.556L220.434 213.558L220.422 213.484C219.153 207.786 218.601 201.25 219.218 194.911C219.761 189.333 221.206 183.88 223.857 179.227L225.137 176.977L227.419 178.194C228.281 178.654 229.213 179.015 230.199 179.26C231.138 179.495 232.139 179.619 233.185 179.619C236.572 179.619 239.64 178.246 241.858 176.028C244.077 173.809 245.45 170.744 245.45 167.356C245.45 164.452 244.52 161.989 242.983 160.007C241.462 158.045 239.321 156.514 236.873 155.459C234.365 154.383 231.552 153.821 228.742 153.821C224.874 153.821 221.066 154.885 218.171 157.131Z" fill="#A1711B"/>
<path d="M185.044 78.2736L172.755 59.8941C172.364 59.3103 171.884 58.8396 171.352 58.4838C170.514 57.9241 169.521 57.6423 168.516 57.6423C167.512 57.6423 166.516 57.9241 165.679 58.4838C165.149 58.8396 164.669 59.3103 164.278 59.8941L151.988 78.2736C151.957 78.32 151.942 78.3589 151.94 78.3886C151.938 78.4275 151.951 78.4738 151.977 78.5238C152.003 78.572 152.031 78.6054 152.06 78.6221C152.079 78.6332 152.123 78.6406 152.192 78.6406H184.84C184.907 78.6406 184.953 78.6332 184.972 78.6221C185 78.6054 185.029 78.572 185.053 78.5238C185.081 78.4738 185.092 78.4275 185.092 78.3886C185.091 78.3589 185.074 78.32 185.042 78.2736H185.044ZM174.141 86.2152L174.137 86.2096C174.782 85.5647 175.316 84.8085 175.709 83.9745H161.32C161.713 84.8122 162.246 85.5684 162.891 86.2152C164.328 87.6478 166.316 88.5374 168.516 88.5374C170.714 88.5374 172.705 87.6478 174.141 86.2152ZM181.362 83.9745C180.756 86.2819 179.544 88.3428 177.907 89.9793H177.898C175.494 92.3831 172.177 93.8713 168.516 93.8713C164.856 93.8713 161.538 92.3831 159.135 89.9793L159.125 89.9701C157.491 88.3336 156.279 86.2764 155.673 83.9745H152.192C151.163 83.9745 150.187 83.6983 149.33 83.185C148.485 82.6772 147.781 81.9432 147.29 81.024C146.799 80.1047 146.58 79.1151 146.628 78.1384C146.677 77.1487 146.993 76.1812 147.572 75.3157L159.863 56.9362C160.653 55.7538 161.631 54.7975 162.721 54.0673C164.474 52.896 166.502 52.3084 168.516 52.3084C170.531 52.3084 172.558 52.8941 174.312 54.0673C175.403 54.7975 176.382 55.7538 177.171 56.9362L189.461 75.3157C190.041 76.1812 190.356 77.1468 190.406 78.1384C190.454 79.1151 190.235 80.1047 189.742 81.024C189.251 81.9432 188.549 82.6772 187.702 83.185C186.848 83.6983 185.871 83.9745 184.84 83.9745H181.363H181.362Z" fill="#A1711B"/>
<path d="M171.183 2.72065V54.9754H165.849V2.72065H171.183Z" fill="#A1711B"/>
<path d="M235.168 56.2913V78.396L243.947 87.1752C244.988 88.2168 244.988 89.9052 243.947 90.9467C242.905 91.9883 241.217 91.9883 240.175 90.9467L229.834 80.6033V56.3246C224.511 56.964 219.739 59.3919 216.139 62.9911C211.916 67.2167 209.303 73.0528 209.303 79.4987C209.303 85.9465 211.916 91.7826 216.139 96.0063C220.363 100.232 226.201 102.843 232.647 102.843C239.095 102.843 244.931 100.23 249.155 96.0063C253.378 91.7826 255.992 85.9465 255.992 79.4987C255.992 73.0528 253.378 67.2148 249.155 62.9911C245.489 59.3252 240.607 56.8732 235.166 56.2913H235.168ZM232.415 50.8239L232.647 50.8221C240.566 50.8221 247.737 54.032 252.926 59.2214C258.116 64.4107 261.326 71.5831 261.326 79.5006C261.326 87.418 258.116 94.5885 252.926 99.7779C247.737 104.969 240.566 108.179 232.647 108.179C224.73 108.179 217.559 104.969 212.37 99.7779C207.18 94.5885 203.969 87.418 203.969 79.5006C203.969 71.5831 207.179 64.4107 212.37 59.2214C217.507 54.0839 224.591 50.8851 232.415 50.8239Z" fill="#A1711B"/>
<path d="M309.318 162.521H265.496V225.219H309.318V162.521ZM262.829 157.187H311.985C313.458 157.187 314.652 158.38 314.652 159.854V227.886C314.652 229.357 313.458 230.553 311.985 230.553H262.829C261.355 230.553 260.162 229.357 260.162 227.886V159.854C260.162 158.38 261.355 157.187 262.829 157.187Z" fill="#A1711B"/>
<path d="M311.985 211.677C313.458 211.677 314.652 212.872 314.652 214.344C314.652 215.817 313.458 217.01 311.985 217.01H262.829C261.355 217.01 260.162 215.817 260.162 214.344C260.162 212.872 261.355 211.677 262.829 211.677H311.985ZM311.985 184.433C313.458 184.433 314.652 185.626 314.652 187.1C314.652 188.571 313.458 189.766 311.985 189.766H262.829C261.355 189.766 260.162 188.573 260.162 187.1C260.162 185.626 261.355 184.433 262.829 184.433H311.985Z" fill="#A1711B"/>
<path fill-rule="evenodd" clip-rule="evenodd" d="M287.406 169.304C289.594 169.304 291.366 171.077 291.366 173.264C291.366 175.451 289.594 177.225 287.406 177.225C285.219 177.225 283.445 175.451 283.445 173.264C283.445 171.077 285.219 169.304 287.406 169.304ZM287.406 196.761C289.594 196.761 291.366 198.533 291.366 200.722C291.366 202.908 289.594 204.682 287.406 204.682C285.219 204.682 283.445 202.908 283.445 200.722C283.445 198.533 285.219 196.761 287.406 196.761Z" fill="#A1711B"/>
<path d="M41.2376 262.304V296H33.0296V275.792L25.4936 296H18.8696L11.2856 275.744V296H3.07756V262.304H12.7736L22.2296 285.632L31.5896 262.304H41.2376ZM59.3321 296.384C56.7081 296.384 54.3401 295.824 52.2281 294.704C50.1481 293.584 48.5001 291.984 47.2841 289.904C46.1001 287.824 45.5081 285.392 45.5081 282.608C45.5081 279.856 46.1161 277.44 47.3321 275.36C48.5481 273.248 50.2121 271.632 52.3241 270.512C54.4361 269.392 56.8041 268.832 59.4281 268.832C62.0521 268.832 64.4201 269.392 66.5321 270.512C68.6441 271.632 70.3081 273.248 71.5241 275.36C72.7401 277.44 73.3481 279.856 73.3481 282.608C73.3481 285.36 72.7241 287.792 71.4761 289.904C70.2601 291.984 68.5801 293.584 66.4361 294.704C64.3241 295.824 61.9561 296.384 59.3321 296.384ZM59.3321 289.28C60.9001 289.28 62.2281 288.704 63.3161 287.552C64.4361 286.4 64.9961 284.752 64.9961 282.608C64.9961 280.464 64.4521 278.816 63.3641 277.664C62.3081 276.512 60.9961 275.936 59.4281 275.936C57.8281 275.936 56.5001 276.512 55.4441 277.664C54.3881 278.784 53.8601 280.432 53.8601 282.608C53.8601 284.752 54.3721 286.4 55.3961 287.552C56.4521 288.704 57.7641 289.28 59.3321 289.28ZM76.0706 282.56C76.0706 279.808 76.5826 277.392 77.6066 275.312C78.6626 273.232 80.0866 271.632 81.8786 270.512C83.6706 269.392 85.6706 268.832 87.8786 268.832C89.6386 268.832 91.2386 269.2 92.6786 269.936C94.1506 270.672 95.3026 271.664 96.1346 272.912V260.48H104.343V296H96.1346V292.16C95.3666 293.44 94.2626 294.464 92.8226 295.232C91.4146 296 89.7666 296.384 87.8786 296.384C85.6706 296.384 83.6706 295.824 81.8786 294.704C80.0866 293.552 78.6626 291.936 77.6066 289.856C76.5826 287.744 76.0706 285.312 76.0706 282.56ZM96.1346 282.608C96.1346 280.56 95.5586 278.944 94.4066 277.76C93.2866 276.576 91.9106 275.984 90.2786 275.984C88.6466 275.984 87.2546 276.576 86.1026 277.76C84.9826 278.912 84.4226 280.512 84.4226 282.56C84.4226 284.608 84.9826 286.24 86.1026 287.456C87.2546 288.64 88.6466 289.232 90.2786 289.232C91.9106 289.232 93.2866 288.64 94.4066 287.456C95.5586 286.272 96.1346 284.656 96.1346 282.608ZM135.529 282.176C135.529 282.944 135.481 283.744 135.385 284.576H116.809C116.937 286.24 117.465 287.52 118.393 288.416C119.353 289.28 120.521 289.712 121.897 289.712C123.945 289.712 125.369 288.848 126.169 287.12H134.905C134.457 288.88 133.641 290.464 132.457 291.872C131.305 293.28 129.849 294.384 128.089 295.184C126.329 295.984 124.361 296.384 122.185 296.384C119.561 296.384 117.225 295.824 115.177 294.704C113.129 293.584 111.529 291.984 110.377 289.904C109.225 287.824 108.649 285.392 108.649 282.608C108.649 279.824 109.209 277.392 110.329 275.312C111.481 273.232 113.081 271.632 115.129 270.512C117.177 269.392 119.529 268.832 122.185 268.832C124.777 268.832 127.081 269.376 129.097 270.464C131.113 271.552 132.681 273.104 133.801 275.12C134.953 277.136 135.529 279.488 135.529 282.176ZM127.129 280.016C127.129 278.608 126.649 277.488 125.689 276.656C124.729 275.824 123.529 275.408 122.089 275.408C120.713 275.408 119.545 275.808 118.585 276.608C117.657 277.408 117.081 278.544 116.857 280.016H127.129ZM148.067 273.68C149.027 272.208 150.227 271.056 151.667 270.224C153.107 269.36 154.707 268.928 156.467 268.928V277.616H154.211C152.163 277.616 150.627 278.064 149.603 278.96C148.579 279.824 148.067 281.36 148.067 283.568V296H139.859V269.216H148.067V273.68ZM176.71 268.928C179.846 268.928 182.342 269.952 184.198 272C186.086 274.016 187.03 276.8 187.03 280.352V296H178.87V281.456C178.87 279.664 178.406 278.272 177.478 277.28C176.55 276.288 175.302 275.792 173.734 275.792C172.166 275.792 170.918 276.288 169.99 277.28C169.062 278.272 168.598 279.664 168.598 281.456V296H160.39V269.216H168.598V272.768C169.43 271.584 170.55 270.656 171.958 269.984C173.366 269.28 174.95 268.928 176.71 268.928Z" fill="black"/>
<path d="M214.234 296.336C212.026 296.336 210.042 295.952 208.282 295.184C206.554 294.384 205.194 293.296 204.202 291.92C203.21 290.512 202.698 288.896 202.666 287.072H207.322C207.482 288.64 208.122 289.968 209.242 291.056C210.394 292.112 212.058 292.64 214.234 292.64C216.314 292.64 217.946 292.128 219.13 291.104C220.346 290.048 220.954 288.704 220.954 287.072C220.954 285.792 220.602 284.752 219.898 283.952C219.194 283.152 218.314 282.544 217.258 282.128C216.202 281.712 214.778 281.264 212.986 280.784C210.778 280.208 209.002 279.632 207.658 279.056C206.346 278.48 205.21 277.584 204.25 276.368C203.322 275.12 202.858 273.456 202.858 271.376C202.858 269.552 203.322 267.936 204.25 266.528C205.178 265.12 206.474 264.032 208.138 263.264C209.834 262.496 211.77 262.112 213.946 262.112C217.082 262.112 219.642 262.896 221.626 264.464C223.642 266.032 224.778 268.112 225.034 270.704H220.234C220.074 269.424 219.402 268.304 218.218 267.344C217.034 266.352 215.466 265.856 213.514 265.856C211.69 265.856 210.202 266.336 209.05 267.296C207.898 268.224 207.322 269.536 207.322 271.232C207.322 272.448 207.658 273.44 208.33 274.208C209.034 274.976 209.882 275.568 210.874 275.984C211.898 276.368 213.322 276.816 215.146 277.328C217.354 277.936 219.13 278.544 220.474 279.152C221.818 279.728 222.97 280.64 223.93 281.888C224.89 283.104 225.37 284.768 225.37 286.88C225.37 288.512 224.938 290.048 224.074 291.488C223.21 292.928 221.93 294.096 220.234 294.992C218.538 295.888 216.538 296.336 214.234 296.336ZM236.166 274.544C237.03 273.04 238.31 271.792 240.006 270.8C241.734 269.776 243.734 269.264 246.006 269.264C248.342 269.264 250.454 269.824 252.342 270.944C254.262 272.064 255.766 273.648 256.854 275.696C257.942 277.712 258.486 280.064 258.486 282.752C258.486 285.408 257.942 287.776 256.854 289.856C255.766 291.936 254.262 293.552 252.342 294.704C250.454 295.856 248.342 296.432 246.006 296.432C243.766 296.432 241.782 295.936 240.054 294.944C238.358 293.92 237.062 292.656 236.166 291.152V308.48H231.798V269.696H236.166V274.544ZM254.022 282.752C254.022 280.768 253.622 279.04 252.822 277.568C252.022 276.096 250.934 274.976 249.558 274.208C248.214 273.44 246.726 273.056 245.094 273.056C243.494 273.056 242.006 273.456 240.63 274.256C239.286 275.024 238.198 276.16 237.366 277.664C236.566 279.136 236.166 280.848 236.166 282.8C236.166 284.784 236.566 286.528 237.366 288.032C238.198 289.504 239.286 290.64 240.63 291.44C242.006 292.208 243.494 292.592 245.094 292.592C246.726 292.592 248.214 292.208 249.558 291.44C250.934 290.64 252.022 289.504 252.822 288.032C253.622 286.528 254.022 284.768 254.022 282.752ZM262.603 282.752C262.603 280.064 263.147 277.712 264.235 275.696C265.323 273.648 266.811 272.064 268.699 270.944C270.619 269.824 272.747 269.264 275.083 269.264C277.387 269.264 279.387 269.76 281.083 270.752C282.779 271.744 284.043 272.992 284.875 274.496V269.696H289.291V296H284.875V291.104C284.011 292.64 282.715 293.92 280.987 294.944C279.291 295.936 277.307 296.432 275.035 296.432C272.699 296.432 270.587 295.856 268.699 294.704C266.811 293.552 265.323 291.936 264.235 289.856C263.147 287.776 262.603 285.408 262.603 282.752ZM284.875 282.8C284.875 280.816 284.475 279.088 283.675 277.616C282.875 276.144 281.787 275.024 280.411 274.256C279.067 273.456 277.579 273.056 275.947 273.056C274.315 273.056 272.827 273.44 271.483 274.208C270.139 274.976 269.067 276.096 268.267 277.568C267.467 279.04 267.067 280.768 267.067 282.752C267.067 284.768 267.467 286.528 268.267 288.032C269.067 289.504 270.139 290.64 271.483 291.44C272.827 292.208 274.315 292.592 275.947 292.592C277.579 292.592 279.067 292.208 280.411 291.44C281.787 290.64 282.875 289.504 283.675 288.032C284.475 286.528 284.875 284.784 284.875 282.8ZM295.041 282.8C295.041 280.08 295.585 277.712 296.673 275.696C297.761 273.648 299.265 272.064 301.185 270.944C303.137 269.824 305.361 269.264 307.857 269.264C311.089 269.264 313.745 270.048 315.825 271.616C317.937 273.184 319.329 275.36 320.001 278.144H315.297C314.849 276.544 313.969 275.28 312.657 274.352C311.377 273.424 309.777 272.96 307.857 272.96C305.361 272.96 303.345 273.824 301.809 275.552C300.273 277.248 299.505 279.664 299.505 282.8C299.505 285.968 300.273 288.416 301.809 290.144C303.345 291.872 305.361 292.736 307.857 292.736C309.777 292.736 311.377 292.288 312.657 291.392C313.937 290.496 314.817 289.216 315.297 287.552H320.001C319.297 290.24 317.889 292.4 315.777 294.032C313.665 295.632 311.025 296.432 307.857 296.432C305.361 296.432 303.137 295.872 301.185 294.752C299.265 293.632 297.761 292.048 296.673 290C295.585 287.952 295.041 285.552 295.041 282.8ZM349.829 281.84C349.829 282.672 349.781 283.552 349.685 284.48H328.661C328.821 287.072 329.701 289.104 331.301 290.576C332.933 292.016 334.901 292.736 337.205 292.736C339.093 292.736 340.661 292.304 341.909 291.44C343.189 290.544 344.085 289.36 344.597 287.888H349.301C348.597 290.416 347.189 292.48 345.077 294.08C342.965 295.648 340.341 296.432 337.205 296.432C334.709 296.432 332.469 295.872 330.485 294.752C328.533 293.632 326.997 292.048 325.877 290C324.757 287.92 324.197 285.52 324.197 282.8C324.197 280.08 324.741 277.696 325.829 275.648C326.917 273.6 328.437 272.032 330.389 270.944C332.373 269.824 334.645 269.264 337.205 269.264C339.701 269.264 341.909 269.808 343.829 270.896C345.749 271.984 347.221 273.488 348.245 275.408C349.301 277.296 349.829 279.44 349.829 281.84ZM345.317 280.928C345.317 279.264 344.949 277.84 344.213 276.656C343.477 275.44 342.469 274.528 341.189 273.92C339.941 273.28 338.549 272.96 337.013 272.96C334.805 272.96 332.917 273.664 331.349 275.072C329.813 276.48 328.933 278.432 328.709 280.928H345.317Z" fill="#A1711B"/>
</svg>
